<svg width="311" height="51" viewBox="0 0 311 51" fill="none" xmlns="http://www.w3.org/2000/svg">
<path d="M310.25 25.4222C310.25 26.8281 309.372 28.3362 307.375 29.9202C305.389 31.4948 302.414 33.0468 298.511 34.5443C290.713 37.5362 279.386 40.2451 265.335 42.5252C237.246 47.0835 198.413 49.9064 155.5 49.9064C112.587 49.9064 73.7544 47.0835 45.665 42.5252C31.6144 40.2451 20.2867 37.5362 12.4886 34.5443C8.5856 33.0468 5.61084 31.4948 3.62523 29.9202C1.62785 28.3362 0.75 26.8281 0.75 25.4222C0.75 24.0163 1.62785 22.5083 3.62523 20.9243C5.61084 19.3496 8.5856 17.7976 12.4886 16.3001C20.2867 13.3083 31.6144 10.5993 45.665 8.31924C73.7544 3.76096 112.587 0.937988 155.5 0.937988C198.413 0.937988 237.246 3.76096 265.335 8.31924C279.386 10.5993 290.713 13.3083 298.511 16.3001C302.414 17.7976 305.389 19.3496 307.375 20.9243C309.372 22.5083 310.25 24.0163 310.25 25.4222Z" stroke="url(#paint0_linear_2957_691)" stroke-width="1.5"/>
<defs>
<linearGradient id="paint0_linear_2957_691" x1="155" y1="0.500119" x2="154.835" y2="75.9998" gradientUnits="userSpaceOnUse">
<stop offset="0.15339" stop-color="#4AB257" stop-opacity="0"/>
<stop offset="0.469544" stop-color="#4AB257"/>
<stop offset="1" stop-color="#1FA3D1"/>
</linearGradient>
</defs>
</svg>
