<svg width="23" height="23" viewBox="0 0 23 23" fill="none" xmlns="http://www.w3.org/2000/svg">
<path d="M23.0001 15.7681C23.0001 16.1725 23.0001 16.5767 23.0001 16.9811C22.9712 17.1337 22.939 17.2857 22.914 17.4389C22.3272 21.0563 18.92 23.5039 15.2945 22.9117C11.6903 22.323 9.25088 18.9228 9.83489 15.3023C10.4159 11.7013 13.8223 9.22084 17.4363 9.84603C20.1315 10.3123 21.8904 11.9258 22.7301 14.5261C22.8598 14.9273 22.9121 15.3535 23.0001 15.7681ZM16.3889 14.5891C15.8652 14.5891 15.3416 14.5858 14.8182 14.5902C14.4226 14.5936 14.143 14.8668 14.1393 15.2421C14.1354 15.6205 14.405 15.9094 14.7999 15.9124C15.847 15.9206 16.8943 15.9206 17.9413 15.9129C18.3466 15.9099 18.6187 15.6155 18.6083 15.2268C18.5984 14.8545 18.317 14.5925 17.9149 14.5899C17.406 14.5865 16.8974 14.5891 16.3889 14.5891ZM16.3747 18.1589V18.163C16.8833 18.163 17.392 18.1679 17.9005 18.1616C18.3306 18.1562 18.6112 17.8841 18.6086 17.4911C18.606 17.0994 18.3202 16.8363 17.8879 16.8355C16.878 16.8338 15.8682 16.834 14.8586 16.8366C14.763 16.8368 14.6622 16.8446 14.5731 16.8758C14.2662 16.9829 14.1005 17.274 14.1451 17.6044C14.1855 17.904 14.4408 18.1489 14.7591 18.1558C15.2975 18.1673 15.8362 18.1589 16.3747 18.1589Z" fill="#858EA9"/>
<path d="M10.2417 0C10.2417 3.40362 10.2417 6.80723 10.2417 10.2261C6.828 10.2261 3.42811 10.2261 8.28206e-05 10.2261C8.28206e-05 10.1393 8.28206e-05 10.0525 8.28206e-05 9.96562C8.28206e-05 7.35416 -0.000103526 4.74289 8.28206e-05 2.13143C0.000269167 1.0454 0.576266 0.305422 1.62707 0.038201C1.65503 0.0311198 1.68 0.0130442 1.70627 0C4.55141 0 7.39654 0 10.2417 0ZM5.79508 4.4466C5.79508 4.15608 5.79657 3.8952 5.79471 3.63413C5.79136 3.18801 5.50364 2.86918 5.11231 2.87551C4.72732 2.88166 4.44948 3.19379 4.44612 3.62761C4.44407 3.89464 4.44575 4.16167 4.44575 4.4466C4.15263 4.4466 3.88485 4.44436 3.61688 4.44716C3.18772 4.45144 2.87299 4.73972 2.87466 5.12304C2.87634 5.50765 3.1894 5.79127 3.62079 5.79537C3.88839 5.79798 4.15598 5.79593 4.44612 5.79593C4.44612 6.10676 4.43736 6.3969 4.44798 6.6863C4.46625 7.18216 4.94087 7.50026 5.37748 7.30888C5.65905 7.18552 5.79061 6.95258 5.79396 6.64847C5.79713 6.36746 5.79471 6.08645 5.79471 5.79593C6.09715 5.79593 6.36623 5.79891 6.63495 5.79519C7.05162 5.7896 7.35853 5.50803 7.36542 5.12993C7.3725 4.74736 7.05665 4.45219 6.6301 4.44716C6.36213 4.44418 6.09361 4.4466 5.79508 4.4466Z" fill="#858EA9"/>
<path d="M20.1248 0C20.4219 0.132492 20.7467 0.224734 21.01 0.406049C21.5314 0.765325 21.8224 1.29268 21.8252 1.92887C21.8368 4.65996 21.8306 7.39124 21.8306 10.1223C21.8306 10.1516 21.8262 10.1808 21.823 10.2211C21.6158 10.2703 21.4468 10.2369 21.2694 10.0983C19.757 8.91649 18.0316 8.35503 16.118 8.40944C14.5402 8.45435 13.0992 8.945 11.8024 9.85027C11.7437 9.89126 11.6833 9.92984 11.5896 9.99245C11.5896 6.6371 11.5896 3.31864 11.5896 0C14.4345 0 17.2797 0 20.1248 0ZM16.7059 5.79593C17.1994 5.79593 17.6928 5.79724 18.1863 5.79556C18.6368 5.79407 18.9521 5.51828 18.9562 5.12583C18.9602 4.73488 18.6419 4.4479 18.1958 4.44716C17.2089 4.44548 16.222 4.44567 15.2351 4.44697C14.7849 4.44753 14.4687 4.72481 14.4651 5.11633C14.4616 5.50765 14.7795 5.79351 15.2256 5.79537C15.719 5.79761 16.2125 5.79593 16.7059 5.79593Z" fill="#858EA9"/>
<path d="M0.000166326 11.5986C3.33949 11.5986 6.64491 11.5986 9.98442 11.5986C9.92796 11.6842 9.88659 11.7501 9.84205 11.8139C7.83081 14.6823 7.93871 18.527 10.0986 21.2896C10.2021 21.4219 10.2289 21.614 10.3118 21.8317C10.1521 21.8317 10.0727 21.8317 9.99336 21.8317C7.35899 21.8317 4.72461 21.8322 2.09023 21.8313C0.868354 21.8309 0.000911711 20.9625 0.000539018 19.7397C-0.000392713 17.1055 0.000166326 14.4712 0.000166326 11.8366C0.000166326 11.7632 0.000166326 11.6898 0.000166326 11.5986ZM5.13047 17.6256C5.35166 17.8627 5.54192 18.0721 5.7387 18.2754C5.90343 18.4456 6.10469 18.5372 6.34489 18.4944C6.59851 18.4491 6.78131 18.3054 6.87113 18.0596C6.96505 17.8028 6.91082 17.5653 6.72504 17.3756C6.51204 17.1581 6.27762 16.9617 6.01506 16.722C6.26867 16.4856 6.47645 16.3041 6.66988 16.1082C6.9835 15.7911 6.99598 15.3912 6.71292 15.1126C6.4293 14.8334 6.0335 14.8511 5.71802 15.1687C5.52441 15.3634 5.34439 15.5715 5.12451 15.8104C4.89455 15.5641 4.71231 15.3569 4.5172 15.1629C4.20116 14.8487 3.80163 14.8353 3.52211 15.1183C3.24241 15.4016 3.25992 15.7976 3.57727 16.1132C3.772 16.307 3.98034 16.4871 4.16426 16.6563C4.13538 16.7282 4.13352 16.7451 4.1242 16.7547C3.94046 16.9412 3.75449 17.1255 3.5715 17.3129C3.26086 17.6312 3.2439 18.0287 3.52696 18.309C3.80946 18.5887 4.20358 18.5704 4.52261 18.2553C4.71417 18.0662 4.89679 17.8684 5.13047 17.6256Z" fill="#858EA9"/>
</svg>
