<svg width="24" height="24" viewBox="0 0 24 24" fill="none" xmlns="http://www.w3.org/2000/svg">
<path d="M12.2003 0.125006C18.5727 0.118833 23.7242 5.26388 23.729 11.64C23.7338 18.0134 18.5665 23.1618 12.1256 23.1248C5.81494 23.0885 0.747084 17.9839 0.728565 11.6681C0.710047 5.28926 5.85335 0.131178 12.2003 0.125006ZM17.155 7.59843C17.1537 6.90301 16.5522 6.53883 15.9438 6.79807C14.0666 7.59775 12.1928 8.40633 10.3163 9.20737C10.0543 9.31916 9.89241 9.50845 9.78336 9.76358C8.99187 11.6167 8.19626 13.4684 7.40409 15.3215C7.23125 15.7261 7.27652 16.0629 7.54126 16.3159C7.83618 16.5985 8.17157 16.6143 8.53714 16.4565C10.3876 15.6596 12.2394 14.8661 14.0926 14.0754C14.3677 13.9581 14.5542 13.7715 14.6722 13.4958C15.4623 11.642 16.2586 9.79032 17.0494 7.93723C17.1057 7.80555 17.1358 7.6629 17.1557 7.59843H17.155Z" fill="url(#paint0_linear_39_787)"/>
<path d="M12.2371 13.2721C11.329 13.2769 10.5856 12.5403 10.5835 11.6337C10.5814 10.7256 11.3201 9.98564 12.2275 9.98633C13.1246 9.98701 13.8606 10.716 13.8681 11.611C13.8757 12.5198 13.1425 13.2666 12.2371 13.2714V13.2721Z" fill="url(#paint1_linear_39_787)"/>
<defs>
<linearGradient id="paint0_linear_39_787" x1="13.535" y1="23.0286" x2="13.4591" y2="-0.972872" gradientUnits="userSpaceOnUse">
<stop stop-color="#4AB255"/>
<stop offset="0.853165" stop-color="#1EA3D0"/>
</linearGradient>
<linearGradient id="paint1_linear_39_787" x1="12.4124" y1="13.2584" x2="12.4015" y2="9.82948" gradientUnits="userSpaceOnUse">
<stop stop-color="#4AB255"/>
<stop offset="0.853165" stop-color="#1EA3D0"/>
</linearGradient>
</defs>
</svg>
