<svg width="38" height="34" viewBox="0 0 38 34" fill="none" xmlns="http://www.w3.org/2000/svg">
<path d="M32.7563 18.6337C32.755 18.4213 32.6246 18.1592 32.4693 18.0039C28.3141 13.8288 24.1464 9.6636 19.9813 5.49718C19.1924 4.70961 18.5539 4.71209 17.7614 5.50339C13.5962 9.66981 9.42856 13.835 5.27456 18.0113C5.11307 18.1741 4.99133 18.4573 4.99009 18.6846C4.97394 23.6423 4.97767 28.6013 4.97767 33.559V34H32.7526C32.76 33.841 32.7675 33.7404 32.7675 33.6398C32.7687 28.6373 32.7724 23.6361 32.7563 18.6337ZM17.6956 23.7778C17.7018 25.8833 17.6968 27.9901 17.6968 30.1653H13.4782V17.3865C13.4782 15.8375 13.4919 15.8238 15.0683 15.9281C15.2335 15.9393 15.3974 15.9791 15.7341 16.0325C15.4335 17.6623 15.1627 19.2002 14.8645 20.7318C14.6061 22.0498 14.6658 22.133 16.0347 22.1405C17.8968 22.1517 17.6893 21.9567 17.6956 23.7778ZM20.6496 29.933C20.0049 29.8684 19.5986 29.487 19.5552 28.8237C19.5154 28.2336 20.1278 27.6175 20.7092 27.6932C21.3241 27.7727 21.7763 28.092 21.7874 28.7963C21.7899 29.4249 21.252 29.9938 20.6496 29.933ZM21.7055 25.6895C20.8744 25.7864 20.0222 25.7044 19.0098 25.7044C19.7415 23.8635 20.416 22.1641 21.1924 20.2088C20.267 20.2088 19.5738 20.184 18.8844 20.2163C18.1912 20.2486 18.031 19.9915 18.2521 19.3467C18.5664 18.4312 18.79 17.4846 19.1216 16.5766C19.216 16.3194 19.5291 16.0064 19.7825 15.9629C22.775 15.4437 25.3564 17.307 25.811 20.2685C26.1936 22.7678 24.2359 25.3926 21.7055 25.6895Z" fill="url(#paint0_linear_2_4909)"/>
<path d="M37.7724 18.5244C37.7625 18.7977 37.5438 19.1678 37.1078 19.4014C36.6681 19.6374 36.2358 19.6014 35.8296 19.3244C35.6743 19.2188 35.5414 19.0796 35.4072 18.9455C30.5973 14.1443 25.7874 9.34184 20.9788 4.54064C19.6148 3.17917 18.1366 3.17668 16.7801 4.53443C11.9553 9.3642 7.1317 14.1927 2.31311 19.0262C1.94044 19.4001 1.53548 19.6498 0.992624 19.5181C0.010024 19.2784 -0.304259 18.1306 0.422442 17.3865C1.41995 16.3629 2.43857 15.3604 3.44726 14.348C7.88573 9.89712 12.3254 5.44623 16.7651 0.99782C18.0956 -0.335087 19.6546 -0.332602 20.9924 1.00527C26.3961 6.40895 31.7986 11.8151 37.2022 17.2175C37.5078 17.5231 37.7811 17.8374 37.7724 18.5244Z" fill="url(#paint1_linear_2_4909)"/>
<defs>
<linearGradient id="paint0_linear_2_4909" x1="20.4513" y1="33.8781" x2="20.3508" y2="3.51958" gradientUnits="userSpaceOnUse">
<stop stop-color="#4AB255"/>
<stop offset="0.853165" stop-color="#1EA3D0"/>
</linearGradient>
<linearGradient id="paint1_linear_2_4909" x1="21.0423" y1="19.4756" x2="21.0088" y2="-0.933703" gradientUnits="userSpaceOnUse">
<stop stop-color="#4AB255"/>
<stop offset="0.853165" stop-color="#1EA3D0"/>
</linearGradient>
</defs>
</svg>
