<svg width="25" height="25" viewBox="0 0 25 25" fill="none" xmlns="http://www.w3.org/2000/svg">
<g clip-path="url(#clip0_2_4299)">
<path d="M22.2725 19.0465C21.9062 19.885 21.4727 20.6569 20.9704 21.3665C20.2857 22.3339 19.7251 23.0035 19.2931 23.3753C18.6233 23.9857 17.9058 24.2982 17.1374 24.316C16.5857 24.316 15.9205 24.1605 15.1461 23.8449C14.3692 23.5309 13.6552 23.3753 13.0024 23.3753C12.3177 23.3753 11.5834 23.5309 10.7979 23.8449C10.0113 24.1605 9.37756 24.3249 8.89305 24.3412C8.15619 24.3723 7.42173 24.0508 6.6886 23.3753C6.22069 22.9709 5.63542 22.2776 4.93429 21.2954C4.18203 20.2465 3.56358 19.0303 3.07906 17.6436C2.56017 16.1459 2.30005 14.6956 2.30005 13.2915C2.30005 11.6831 2.65076 10.2959 3.35324 9.13337C3.90532 8.19962 4.63979 7.46305 5.55903 6.92232C6.47827 6.3816 7.47151 6.10605 8.54114 6.08842C9.12641 6.08842 9.89391 6.26783 10.8477 6.62041C11.7988 6.97417 12.4095 7.15358 12.6772 7.15358C12.8774 7.15358 13.5558 6.9438 14.7058 6.5256C15.7934 6.13776 16.7113 5.97717 17.4633 6.04043C19.5009 6.20338 21.0317 6.99936 22.0497 8.43339C20.2274 9.52758 19.326 11.0601 19.3439 13.0261C19.3603 14.5575 19.9209 15.8318 21.0227 16.8437C21.522 17.3133 22.0796 17.6762 22.7001 17.934C22.5655 18.3206 22.4235 18.691 22.2725 19.0465ZM17.5993 0.823398C17.5993 2.02367 17.1568 3.14436 16.2748 4.18167C15.2104 5.41481 13.9229 6.12739 12.5268 6.01494C12.509 5.87095 12.4987 5.7194 12.4987 5.56014C12.4987 4.40788 13.0049 3.17473 13.9038 2.16647C14.3526 1.65597 14.9234 1.23149 15.6155 0.892877C16.3062 0.559317 16.9595 0.374851 17.5739 0.343262C17.5918 0.50372 17.5993 0.664188 17.5993 0.823383V0.823398Z" fill="#33384B"/>
</g>
<defs>
<clipPath id="clip0_2_4299">
<rect x="0.5" y="0.343262" width="24" height="24" rx="6" fill="white"/>
</clipPath>
</defs>
</svg>
