<svg width="15" height="15" viewBox="0 0 15 15" fill="none" xmlns="http://www.w3.org/2000/svg">
<path d="M0.00366211 10.666C0.0236131 10.6175 0.0435641 10.5686 0.0635151 10.5201C0.209431 10.1638 0.595542 9.9432 0.958572 10.0101C1.37637 10.0867 1.66233 10.4098 1.67133 10.8158C1.67994 11.1858 1.65803 11.5597 1.70302 11.9254C1.79886 12.7088 2.4901 13.3084 3.27836 13.331C3.3124 13.3318 3.34682 13.3322 3.38086 13.3322C6.12901 13.3322 8.87716 13.333 11.6253 13.3318C12.3971 13.3314 13.0305 12.8793 13.2507 12.1647C13.2989 12.0087 13.3215 11.8409 13.3286 11.677C13.3411 11.3946 13.3298 11.1111 13.3329 10.8283C13.338 10.3711 13.7108 9.99992 14.1638 9.99757C14.6238 9.99522 15.0052 10.368 14.9974 10.8361C14.9892 11.3274 15.0064 11.8256 14.9321 12.3083C14.733 13.6017 13.5997 14.7148 12.3107 14.9401C12.2109 14.9577 12.1124 14.9796 12.013 14.9995C9.00586 14.9995 5.99874 14.9995 2.99123 14.9995C2.96423 14.9901 2.93763 14.9761 2.91025 14.9725C1.57001 14.8012 0.470359 13.8446 0.119065 12.5379C0.0725126 12.3646 0.0416081 12.1878 0.00366211 12.0126C0.00366211 11.5636 0.00366211 11.1146 0.00366211 10.666Z" fill="white"/>
<path d="M8.37797 8.78232C8.99528 8.16436 9.61063 7.54445 10.2303 6.92923C10.6203 6.54202 11.2259 6.59521 11.5263 7.03639C11.7497 7.36454 11.7121 7.79398 11.4219 8.09631C11.1652 8.36383 10.8992 8.62236 10.6367 8.8848C9.81562 9.70614 8.9945 10.5275 8.1726 11.348C7.73524 11.7849 7.26776 11.7837 6.8304 11.3465C5.764 10.2807 4.69721 9.2149 3.6312 8.14794C3.30338 7.81979 3.24196 7.39191 3.46964 7.04695C3.76343 6.60147 4.37565 6.53694 4.76372 6.91945C5.3509 7.49869 5.93143 8.08419 6.51432 8.66812C6.55187 8.70567 6.58199 8.75143 6.61525 8.79328C6.63128 8.78819 6.64693 8.78272 6.66297 8.77763C6.66297 8.71896 6.66297 8.6603 6.66297 8.60124C6.66297 6.04961 6.66336 3.49759 6.66258 0.945958C6.66258 0.721067 6.69935 0.509474 6.8437 0.327997C7.05573 0.0604747 7.3949 -0.0568597 7.71959 0.03779C8.06619 0.138698 8.27157 0.371802 8.32555 0.730845C8.33846 0.817281 8.34042 0.905673 8.34042 0.993282C8.3412 3.53044 8.3412 6.0676 8.3412 8.60476C8.3412 8.66108 8.3412 8.7174 8.3412 8.77411C8.35333 8.77685 8.36585 8.77959 8.37797 8.78232Z" fill="white"/>
</svg>
