<svg width="25" height="25" viewBox="0 0 25 25" fill="none" xmlns="http://www.w3.org/2000/svg">
<g clip-path="url(#clip0_2_4295)">
<path fill-rule="evenodd" clip-rule="evenodd" d="M24.02 12.6159C24.02 11.765 23.9436 10.9468 23.8018 10.1614H12.5V14.8032H18.9582C18.68 16.3032 17.8345 17.5741 16.5636 18.425V21.4359H20.4418C22.7109 19.3468 24.02 16.2705 24.02 12.6159Z" fill="#4285F4"/>
<path fill-rule="evenodd" clip-rule="evenodd" d="M12.5 24.3433C15.74 24.3433 18.4564 23.2687 20.4418 21.436L16.5636 18.4251C15.4891 19.1451 14.1145 19.5706 12.5 19.5706C9.37455 19.5706 6.72909 17.4597 5.78546 14.6233H1.77637V17.7324C3.75091 21.6542 7.80909 24.3433 12.5 24.3433Z" fill="#34A853"/>
<path fill-rule="evenodd" clip-rule="evenodd" d="M5.78545 14.6232C5.54545 13.9032 5.40909 13.1341 5.40909 12.3432C5.40909 11.5523 5.54545 10.7832 5.78545 10.0632V6.9541H1.77636C0.963636 8.5741 0.5 10.4068 0.5 12.3432C0.5 14.2796 0.963636 16.1123 1.77636 17.7323L5.78545 14.6232Z" fill="#FBBC05"/>
<path fill-rule="evenodd" clip-rule="evenodd" d="M12.5 5.11599C14.2618 5.11599 15.8436 5.72144 17.0873 6.91053L20.5291 3.46872C18.4509 1.53235 15.7345 0.343262 12.5 0.343262C7.80909 0.343262 3.75091 3.03235 1.77637 6.95417L5.78546 10.0633C6.72909 7.2269 9.37455 5.11599 12.5 5.11599Z" fill="#EA4335"/>
</g>
<defs>
<clipPath id="clip0_2_4295">
<rect x="0.5" y="0.343262" width="24" height="24" rx="6" fill="white"/>
</clipPath>
</defs>
</svg>
