<svg width="20" height="22" viewBox="0 0 20 22" fill="none" xmlns="http://www.w3.org/2000/svg">
<path fill-rule="evenodd" clip-rule="evenodd" d="M12.058 3.1531C10.8608 2.17358 9.13917 2.17358 7.94198 3.1531L1.7673 8.2051C1.29799 8.58909 1.46708 9.3439 2.05535 9.49097C3.05131 9.73996 3.75 10.6348 3.75 11.6614V16.5002C3.75 18.2951 5.20507 19.7502 7 19.7502H13C14.7949 19.7502 16.25 18.2951 16.25 16.5002V11.6614C16.25 10.6348 16.9487 9.73996 17.9446 9.49097C18.5329 9.3439 18.702 8.58909 18.2327 8.20511L12.058 3.1531ZM6.99212 1.99216C8.74186 0.560555 11.2581 0.560557 13.0079 1.99216L19.1826 7.04417C20.6067 8.20939 20.0936 10.4999 18.3085 10.9462C17.9802 11.0282 17.75 11.3231 17.75 11.6614V16.5002C17.75 19.1236 15.6234 21.2502 13 21.2502H7C4.37665 21.2502 2.25 19.1236 2.25 16.5002V11.6614C2.25 11.3231 2.01976 11.0282 1.69155 10.9462C-0.093604 10.4999 -0.606708 8.20938 0.817444 7.04417L6.99212 1.99216Z" fill="#484848"/>
<path fill-rule="evenodd" clip-rule="evenodd" d="M10 13.25C9.30964 13.25 8.75 13.8096 8.75 14.5C8.75 15.1904 9.30964 15.75 10 15.75C10.6904 15.75 11.25 15.1904 11.25 14.5C11.25 13.8096 10.6904 13.25 10 13.25ZM7.25 14.5C7.25 12.9812 8.48122 11.75 10 11.75C11.5188 11.75 12.75 12.9812 12.75 14.5C12.75 16.0188 11.5188 17.25 10 17.25C8.48122 17.25 7.25 16.0188 7.25 14.5Z" fill="#484848"/>
</svg>
