<svg width="25" height="25" viewBox="0 0 25 25" fill="none" xmlns="http://www.w3.org/2000/svg">
<path d="M21.12 8.95C20.07 4.33 16.04 2.25 12.5 2.25C12.5 2.25 12.5 2.25 12.49 2.25C8.95997 2.25 4.91997 4.32 3.86997 8.94C2.69997 14.1 5.85997 18.47 8.71997 21.22C9.77997 22.24 11.14 22.75 12.5 22.75C13.86 22.75 15.22 22.24 16.27 21.22C19.13 18.47 22.29 14.11 21.12 8.95ZM12.5 13.96C10.76 13.96 9.34997 12.55 9.34997 10.81C9.34997 9.07 10.76 7.66 12.5 7.66C14.24 7.66 15.65 9.07 15.65 10.81C15.65 12.55 14.24 13.96 12.5 13.96Z" fill="#1D272F"/>
</svg>
