<svg width="24" height="25" viewBox="0 0 24 25" fill="none" xmlns="http://www.w3.org/2000/svg">
<path d="M19.9718 6.31691L19.2802 6.60701H19.2802L19.9718 6.31691ZM19.357 6.79011C19.5172 7.17208 19.9568 7.35184 20.3388 7.19162C20.7207 7.0314 20.9005 6.59187 20.7403 6.20989L19.357 6.79011ZM16.7785 2.30364C16.394 2.14981 15.9575 2.33687 15.8036 2.72146C15.6498 3.10604 15.8369 3.54252 16.2215 3.69636L16.7785 2.30364ZM16.6672 3.06689L16.3887 3.76325L16.6672 3.06689ZM4.0768 6.31691L4.76842 6.60701L4.0768 6.31691ZM3.30838 6.20989C3.14816 6.59187 3.32792 7.0314 3.70989 7.19162C4.09187 7.35184 4.5314 7.17208 4.69162 6.79011L3.30838 6.20989ZM7.82719 3.69636C8.21178 3.54252 8.39884 3.10604 8.245 2.72146C8.09117 2.33687 7.65469 2.14981 7.2701 2.30364L7.82719 3.69636ZM7.38142 3.06689L7.10288 2.37053L7.10288 2.37053L7.38142 3.06689ZM18.2395 9.47519L17.4943 9.55977L18.2395 9.47519ZM18.6867 13.4153L19.4319 13.3307V13.3307L18.6867 13.4153ZM5.31328 13.4153L4.56806 13.3307L4.56806 13.3307L5.31328 13.4153ZM5.76046 9.47519L6.50568 9.55977L5.76046 9.47519ZM4.44779 15.3721L3.87668 14.886H3.87668L4.44779 15.3721ZM19.5522 15.3721L18.9811 15.8583L19.5522 15.3721ZM14.2699 4.87366H13.5199C13.5199 5.19424 13.7237 5.47938 14.027 5.58322L14.2699 4.87366ZM9.73005 4.87366L9.973 5.58322C10.2763 5.47938 10.4801 5.19424 10.4801 4.87366H9.73005ZM15.7023 20.7632C15.8477 20.3753 15.6511 19.9431 15.2632 19.7977C14.8753 19.6523 14.4431 19.8489 14.2977 20.2368L15.7023 20.7632ZM9.7023 20.2368C9.55694 19.8489 9.12467 19.6523 8.7368 19.7977C8.34893 19.9431 8.15234 20.3753 8.2977 20.7632L9.7023 20.2368ZM19.2802 6.60701L19.357 6.79011L20.7403 6.20989L20.6635 6.0268L19.2802 6.60701ZM16.2215 3.69636L16.3887 3.76325L16.9458 2.37053L16.7785 2.30364L16.2215 3.69636ZM20.6635 6.0268C19.964 4.35927 18.6247 3.04211 16.9458 2.37053L16.3887 3.76325C17.6945 4.28559 18.7362 5.31004 19.2802 6.60701L20.6635 6.0268ZM3.38518 6.0268L3.30838 6.20989L4.69162 6.79011L4.76842 6.60701L3.38518 6.0268ZM7.2701 2.30364L7.10288 2.37053L7.65996 3.76325L7.82719 3.69636L7.2701 2.30364ZM4.76842 6.60701C5.31244 5.31004 6.35411 4.28559 7.65996 3.76325L7.10288 2.37053C5.42393 3.04211 4.08464 4.35927 3.38518 6.0268L4.76842 6.60701ZM17.7772 17.75H6.22281V19.25H17.7772V17.75ZM17.4943 9.55977L17.9415 13.4998L19.4319 13.3307L18.9848 9.39061L17.4943 9.55977ZM6.05849 13.4998L6.50568 9.55977L5.01525 9.39061L4.56806 13.3307L6.05849 13.4998ZM5.01889 15.8583C5.59621 15.1801 5.96028 14.3652 6.05849 13.4998L4.56806 13.3307C4.50519 13.8846 4.27067 14.4231 3.87668 14.886L5.01889 15.8583ZM17.9415 13.4998C18.0397 14.3652 18.4038 15.1801 18.9811 15.8583L20.1233 14.886C19.7293 14.4231 19.4948 13.8846 19.4319 13.3307L17.9415 13.4998ZM6.22281 17.75C5.56777 17.75 5.10443 17.426 4.89056 17.0492C4.68409 16.6854 4.68714 16.248 5.01889 15.8583L3.87668 14.886C3.11141 15.785 3.08777 16.9116 3.58598 17.7895C4.07679 18.6544 5.04947 19.25 6.22281 19.25V17.75ZM17.7772 19.25C18.9505 19.25 19.9232 18.6544 20.414 17.7895C20.9122 16.9116 20.8886 15.785 20.1233 14.886L18.9811 15.8583C19.3129 16.248 19.3159 16.6854 19.1094 17.0492C18.8956 17.426 18.4322 17.75 17.7772 17.75V19.25ZM15.0199 4.87366V4.76995H13.5199V4.87366H15.0199ZM18.9848 9.39061C18.7055 6.93026 16.8806 4.97476 14.5129 4.1641L14.027 5.58322C15.9441 6.23962 17.2913 7.77101 17.4943 9.55977L18.9848 9.39061ZM10.4801 4.87366V4.76995H8.98005V4.87366H10.4801ZM6.50568 9.55977C6.7087 7.77101 8.05587 6.23962 9.973 5.58322L9.48711 4.1641C7.11944 4.97476 5.29449 6.93026 5.01525 9.39061L6.50568 9.55977ZM12 3.25C12.8394 3.25 13.5199 3.9305 13.5199 4.76995H15.0199C15.0199 3.10208 13.6679 1.75 12 1.75V3.25ZM12 1.75C10.3321 1.75 8.98005 3.10208 8.98005 4.76995H10.4801C10.4801 3.9305 11.1606 3.25 12 3.25V1.75ZM14.2977 20.2368C13.975 21.0979 13.0846 21.75 12 21.75V23.25C13.6855 23.25 15.1516 22.2325 15.7023 20.7632L14.2977 20.2368ZM12 21.75C10.9154 21.75 10.025 21.0979 9.7023 20.2368L8.2977 20.7632C8.84835 22.2325 10.3145 23.25 12 23.25V21.75Z" fill="#484848"/>
</svg>
