<svg width="24" height="25" viewBox="0 0 24 25" fill="none" xmlns="http://www.w3.org/2000/svg">
<path d="M18.704 18.7958C19.323 19.4148 19.323 20.4178 18.704 21.0358C18.085 21.6548 17.082 21.6548 16.464 21.0358C15.845 20.4168 15.845 19.4138 16.464 18.7958C17.083 18.1768 18.086 18.1768 18.704 18.7958" stroke="#484848" stroke-width="1.5" stroke-linecap="round" stroke-linejoin="round"/>
<path d="M7.70412 18.7959C8.32312 19.4149 8.32312 20.4179 7.70412 21.0359C7.08512 21.6549 6.08212 21.6549 5.46412 21.0359C4.84612 20.4169 4.84512 19.4139 5.46412 18.7959C6.08312 18.1779 7.08512 18.1769 7.70412 18.7959" stroke="#484848" stroke-width="1.5" stroke-linecap="round" stroke-linejoin="round"/>
<path d="M10 4.5H14C14.552 4.5 15 4.948 15 5.5V15.5H2" stroke="#484848" stroke-width="1.5" stroke-linecap="round" stroke-linejoin="round"/>
<path d="M5 19.916H3C2.448 19.916 2 19.468 2 18.916V13.5" stroke="#484848" stroke-width="1.5" stroke-linecap="round" stroke-linejoin="round"/>
<path d="M15 7.5H19.323C19.732 7.5 20.1 7.749 20.251 8.129L21.857 12.143C21.951 12.379 22 12.631 22 12.885V18.833C22 19.385 21.552 19.833 21 19.833H19.169" stroke="#484848" stroke-width="1.5" stroke-linecap="round" stroke-linejoin="round"/>
<path d="M15.9999 19.9199H8.16992" stroke="#484848" stroke-width="1.5" stroke-linecap="round" stroke-linejoin="round"/>
<path d="M22 14.5H18V10.5H21.2" stroke="#484848" stroke-width="1.5" stroke-linecap="round" stroke-linejoin="round"/>
<path d="M2 4.5H7" stroke="#484848" stroke-width="1.5" stroke-linecap="round" stroke-linejoin="round"/>
<path d="M2 7.5H5" stroke="#484848" stroke-width="1.5" stroke-linecap="round" stroke-linejoin="round"/>
<path d="M3 10.5H2" stroke="#484848" stroke-width="1.5" stroke-linecap="round" stroke-linejoin="round"/>
</svg>
