<svg width="20" height="20" viewBox="0 0 20 20" fill="none" xmlns="http://www.w3.org/2000/svg">
<path d="M7.39998 3.83311C6.73331 0.949773 2.39165 0.94144 1.72498 3.83311C1.33331 5.52477 2.40831 6.95811 3.34165 7.84977C4.02498 8.49144 5.09998 8.49144 5.78331 7.84977C6.71665 6.95811 7.78331 5.52477 7.39998 3.83311ZM4.59165 5.16644C4.13331 5.16644 3.75831 4.79144 3.75831 4.33311C3.75831 3.87477 4.12498 3.49977 4.58331 3.49977H4.59165C5.05831 3.49977 5.42498 3.87477 5.42498 4.33311C5.42498 4.79144 5.05831 5.16644 4.59165 5.16644Z" fill="url(#paint0_linear_3043_1215)"/>
<path d="M18.2583 13.8331C17.5917 10.9498 13.2333 10.9414 12.5583 13.8331C12.1667 15.5248 13.2417 16.9581 14.1833 17.8498C14.8667 18.4914 15.95 18.4914 16.6333 17.8498C17.575 16.9581 18.65 15.5248 18.2583 13.8331ZM15.4417 15.1664C14.9833 15.1664 14.6083 14.7914 14.6083 14.3331C14.6083 13.8748 14.975 13.4998 15.4333 13.4998H15.4417C15.9 13.4998 16.275 13.8748 16.275 14.3331C16.275 14.7914 15.9 15.1664 15.4417 15.1664Z" fill="url(#paint1_linear_3043_1215)"/>
<path d="M9.99991 16.4582H7.76658C6.79991 16.4582 5.95824 15.8748 5.62491 14.9748C5.28324 14.0748 5.53324 13.0832 6.25824 12.4415L12.9166 6.6165C13.3166 6.2665 13.3249 5.7915 13.2082 5.4665C13.0832 5.1415 12.7666 4.7915 12.2332 4.7915H9.99991C9.65824 4.7915 9.37491 4.50817 9.37491 4.1665C9.37491 3.82484 9.65824 3.5415 9.99991 3.5415H12.2332C13.1999 3.5415 14.0416 4.12484 14.3749 5.02484C14.7166 5.92484 14.4666 6.9165 13.7416 7.55817L7.08324 13.3832C6.68324 13.7332 6.67491 14.2082 6.79158 14.5332C6.91658 14.8582 7.23324 15.2082 7.76658 15.2082H9.99991C10.3416 15.2082 10.6249 15.4915 10.6249 15.8332C10.6249 16.1748 10.3416 16.4582 9.99991 16.4582Z" fill="url(#paint2_linear_3043_1215)"/>
<defs>
<linearGradient id="paint0_linear_3043_1215" x1="1.62428" y1="5.10667" x2="7.46217" y2="5.10561" gradientUnits="userSpaceOnUse">
<stop stop-color="#4AB255"/>
<stop offset="0.853165" stop-color="#1EA3D0"/>
</linearGradient>
<linearGradient id="paint1_linear_3043_1215" x1="12.4576" y1="15.1067" x2="18.3231" y2="15.1056" gradientUnits="userSpaceOnUse">
<stop stop-color="#4AB255"/>
<stop offset="0.853165" stop-color="#1EA3D0"/>
</linearGradient>
<linearGradient id="paint2_linear_3043_1215" x1="5.44619" y1="10.2081" x2="14.498" y2="10.2067" gradientUnits="userSpaceOnUse">
<stop stop-color="#4AB255"/>
<stop offset="0.853165" stop-color="#1EA3D0"/>
</linearGradient>
</defs>
</svg>
