<svg width="24" height="25" viewBox="0 0 24 25" fill="none" xmlns="http://www.w3.org/2000/svg">
<path fill-rule="evenodd" clip-rule="evenodd" d="M7.38566 16.1959C6.19864 16.7895 5.75 17.4706 5.75 18C5.75 18.5294 6.19864 19.2105 7.38566 19.8041C8.52782 20.3751 10.1582 20.75 12 20.75C13.8418 20.75 15.4722 20.3751 16.6143 19.8041C17.8014 19.2105 18.25 18.5294 18.25 18C18.25 17.4706 17.8014 16.7895 16.6143 16.1959C15.4722 15.6249 13.8418 15.25 12 15.25C10.1582 15.25 8.52782 15.6249 7.38566 16.1959ZM6.71484 14.8543C8.10618 14.1586 9.97582 13.75 12 13.75C14.0242 13.75 15.8938 14.1586 17.2852 14.8543C18.6316 15.5275 19.75 16.5964 19.75 18C19.75 19.4036 18.6316 20.4725 17.2852 21.1457C15.8938 21.8414 14.0242 22.25 12 22.25C9.97582 22.25 8.10618 21.8414 6.71484 21.1457C5.36836 20.4725 4.25 19.4036 4.25 18C4.25 16.5964 5.36836 15.5275 6.71484 14.8543Z" fill="#484848"/>
<path fill-rule="evenodd" clip-rule="evenodd" d="M12 4.25C10.2051 4.25 8.75 5.70507 8.75 7.5C8.75 9.29493 10.2051 10.75 12 10.75C13.7949 10.75 15.25 9.29493 15.25 7.5C15.25 5.70507 13.7949 4.25 12 4.25ZM7.25 7.5C7.25 4.87665 9.37665 2.75 12 2.75C14.6234 2.75 16.75 4.87665 16.75 7.5C16.75 10.1234 14.6234 12.25 12 12.25C9.37665 12.25 7.25 10.1234 7.25 7.5Z" fill="#484848"/>
</svg>
