<svg width="19" height="20" viewBox="0 0 19 20" fill="none" xmlns="http://www.w3.org/2000/svg">
<path d="M10.1692 -0.000244141C10.6024 0.0829068 11.0445 0.135243 11.4675 0.254589C12.7932 0.628279 13.8857 1.3693 14.739 2.44488C15.7447 3.7122 16.2127 5.16538 16.149 6.77998C16.1044 7.90643 15.7731 8.9512 15.1673 9.90401C14.4939 10.9634 13.8127 12.018 13.1348 13.075C13.1138 13.1078 13.0947 13.141 13.0569 13.2036C13.2731 13.2442 13.473 13.279 13.672 13.3196C14.7708 13.5446 15.851 13.8278 16.8494 14.358C17.367 14.6324 17.8429 14.964 18.1771 15.4546C18.6765 16.1887 18.604 17.0481 17.9997 17.7344C17.6453 18.1364 17.2047 18.4245 16.7313 18.6642C15.6222 19.2252 14.4307 19.5163 13.2137 19.7183C11.814 19.9506 10.403 20.0357 8.98703 19.9868C7.06579 19.9203 5.17249 19.6791 3.36398 18.9797C2.75967 18.7459 2.18575 18.4558 1.69368 18.0264C0.59142 17.0643 0.63602 15.7436 1.79513 14.8476C2.53912 14.2724 3.39143 13.9217 4.28735 13.6776C4.90734 13.5088 5.54007 13.3851 6.16693 13.2413C6.21643 13.23 6.26642 13.2178 6.33455 13.2022C6.29534 13.1347 6.26593 13.0804 6.2326 13.028C5.5587 11.9764 4.87009 10.9341 4.21334 9.87221C3.39339 8.54669 3.0807 7.10378 3.3184 5.55717C3.64285 3.44612 4.76276 1.87114 6.60019 0.803874C7.35055 0.368066 8.17344 0.124971 9.03947 0.035951C9.10318 0.0295924 9.16641 0.0124731 9.22963 0.000244982C9.5433 -0.000244141 9.85649 -0.000244141 10.1692 -0.000244141ZM9.70112 16.2484C9.7516 16.1741 9.79228 16.1178 9.82953 16.0591C11.1122 14.0537 12.3962 12.0498 13.6749 10.0424C13.9509 9.60956 14.2611 9.18842 14.465 8.72229C15.3864 6.61319 15.1046 4.6474 13.5853 2.91933C12.4011 1.57229 10.8534 1.02056 9.07427 1.2211C7.55492 1.39229 6.34484 2.1382 5.43274 3.36639C4.18002 5.05289 4.08591 7.4897 5.2166 9.25836C6.66978 11.5328 8.12688 13.8048 9.58251 16.0772C9.61584 16.1301 9.65358 16.1804 9.70112 16.2484ZM10.1564 18.8285C10.6348 18.7889 11.5778 18.7312 12.5153 18.628C13.598 18.5091 14.6561 18.2665 15.6687 17.8552C16.201 17.639 16.7205 17.3944 17.1111 16.9523C17.3929 16.6329 17.4081 16.3203 17.1067 16.018C16.8803 15.7906 16.619 15.5822 16.3392 15.4267C15.1659 14.7737 13.871 14.5228 12.5604 14.3257C12.3884 14.2998 12.3105 14.3575 12.2242 14.4949C11.5724 15.5289 10.9161 16.5605 10.2476 17.5837C10.1579 17.7212 10.0099 17.8513 9.85943 17.9129C9.59232 18.022 9.34236 17.8933 9.15612 17.6033C8.48319 16.5517 7.81076 15.4996 7.14176 14.446C7.08 14.3492 7.02756 14.2968 6.89621 14.3218C6.48746 14.4 6.07283 14.4465 5.66554 14.5301C4.75835 14.716 3.86634 14.9591 3.05913 15.4267C2.78124 15.5876 2.51805 15.7916 2.29162 16.019C1.99167 16.3203 2.00441 16.6373 2.28966 16.9518C2.41512 17.0902 2.55922 17.2184 2.71311 17.324C3.33114 17.75 4.02906 17.999 4.74462 18.2015C6.3615 18.6598 8.01808 18.8036 10.1564 18.8285Z" fill="url(#paint0_linear_39_788)"/>
<path d="M12.6337 6.48968C12.6318 8.10427 11.3178 9.41121 9.69748 9.41072C8.07032 9.41023 6.76074 8.09449 6.76564 6.46571C6.77054 4.85405 8.08894 3.55103 9.7117 3.55445C11.3286 3.55787 12.6357 4.87117 12.6337 6.48968ZM7.94142 6.45348C7.95416 7.36765 8.59571 8.19721 9.66612 8.22949C10.5694 8.25688 11.4148 7.59852 11.4501 6.52098C11.4805 5.59996 10.7997 4.75916 9.72395 4.73519C8.79568 4.71416 8.0017 5.39649 7.94142 6.45348Z" fill="url(#paint1_linear_39_788)"/>
<defs>
<linearGradient id="paint0_linear_39_788" x1="10.7018" y1="19.9163" x2="10.6268" y2="-0.954871" gradientUnits="userSpaceOnUse">
<stop stop-color="#4AB255"/>
<stop offset="0.853165" stop-color="#1EA3D0"/>
</linearGradient>
<linearGradient id="paint1_linear_39_788" x1="10.0329" y1="9.38617" x2="10.0137" y2="3.2749" gradientUnits="userSpaceOnUse">
<stop stop-color="#4AB255"/>
<stop offset="0.853165" stop-color="#1EA3D0"/>
</linearGradient>
</defs>
</svg>
