<svg width="84" height="84" viewBox="0 0 84 84" fill="none" xmlns="http://www.w3.org/2000/svg">
<g filter="url(#filter0_d_3101_2538)">
<rect x="24" y="14" width="36" height="36" rx="18" fill="url(#paint0_linear_3101_2538)"/>
</g>
<path fill-rule="evenodd" clip-rule="evenodd" d="M42 40.3337C44.8125 40.3337 49.5 35.1654 49.5 31.0744C49.5 26.9834 46.1421 23.667 42 23.667C37.8579 23.667 34.5 26.9834 34.5 31.0744C34.5 35.1654 39.1875 40.3337 42 40.3337ZM42 33.667C43.3807 33.667 44.5 32.5477 44.5 31.167C44.5 29.7863 43.3807 28.667 42 28.667C40.6193 28.667 39.5 29.7863 39.5 31.167C39.5 32.5477 40.6193 33.667 42 33.667Z" fill="white"/>
<defs>
<filter id="filter0_d_3101_2538" x="0" y="0" width="84" height="84" filterUnits="userSpaceOnUse" color-interpolation-filters="sRGB">
<feFlood flood-opacity="0" result="BackgroundImageFix"/>
<feColorMatrix in="SourceAlpha" type="matrix" values="0 0 0 0 0 0 0 0 0 0 0 0 0 0 0 0 0 0 127 0" result="hardAlpha"/>
<feOffset dy="10"/>
<feGaussianBlur stdDeviation="12"/>
<feComposite in2="hardAlpha" operator="out"/>
<feColorMatrix type="matrix" values="0 0 0 0 0.356863 0 0 0 0 0.619608 0 0 0 0 0.882353 0 0 0 0.5 0"/>
<feBlend mode="normal" in2="BackgroundImageFix" result="effect1_dropShadow_3101_2538"/>
<feBlend mode="normal" in="SourceGraphic" in2="effect1_dropShadow_3101_2538" result="shape"/>
</filter>
<linearGradient id="paint0_linear_3101_2538" x1="23.8894" y1="32.5804" x2="59.8894" y2="32.5729" gradientUnits="userSpaceOnUse">
<stop stop-color="#4AB255"/>
<stop offset="0.853165" stop-color="#1EA3D0"/>
</linearGradient>
</defs>
</svg>
