<svg width="23" height="23" viewBox="0 0 23 23" fill="none" xmlns="http://www.w3.org/2000/svg">
<path d="M9.93438 4.97265C9.93438 5.9846 9.93961 6.99656 9.93242 8.00852C9.92522 8.97142 9.40267 9.66481 8.52498 9.87872C8.35298 9.92058 8.16985 9.93236 7.99196 9.93301C5.9763 9.93693 3.96063 9.93824 1.94562 9.93432C0.971794 9.93235 0.265461 9.40315 0.0548692 8.52071C0.0117043 8.34083 0.00320219 8.14916 0.00320219 7.96273C-6.78719e-05 5.96367 -0.0013759 3.96396 0.00189417 1.9649C0.00320219 0.975181 0.531644 0.264128 1.42175 0.0541483C1.59441 0.0135914 1.77754 0.00508757 1.95543 0.00443343C3.96259 -0.000145572 5.97041 -0.00145386 7.97757 0.00181686C8.96579 0.00377928 9.6767 0.534289 9.88337 1.42719C9.92719 1.61559 9.93111 1.81575 9.93176 2.01003C9.937 2.99779 9.93438 3.98489 9.93438 4.97265Z" fill="#858EA9"/>
<path d="M22.4712 4.99222C22.4712 5.99567 22.4764 6.99978 22.4699 8.00323C22.4634 8.96809 21.9434 9.65756 21.067 9.87866C20.9729 9.90221 20.8748 9.91987 20.778 9.92053C18.5995 9.92314 16.4209 9.94015 14.2424 9.91399C13.4164 9.90417 12.7657 9.30563 12.5852 8.50038C12.5466 8.32704 12.54 8.14388 12.54 7.96595C12.5368 5.96689 12.5361 3.96718 12.5387 1.96812C12.54 0.975782 13.0645 0.269308 13.954 0.0521329C14.0482 0.0292379 14.1469 0.0141926 14.2437 0.0141926C16.4137 0.011576 18.5844 -0.00543167 20.7544 0.020734C21.5909 0.0305462 22.2299 0.610771 22.4189 1.42387C22.4627 1.61226 22.4679 1.81178 22.4692 2.00671C22.4738 3.00101 22.4712 3.99661 22.4712 4.99222Z" fill="#858EA9"/>
<path d="M9.93443 17.5115C9.93443 18.5234 9.94032 19.5354 9.93247 20.5473C9.92528 21.5096 9.40141 22.2036 8.52373 22.4162C8.34387 22.4601 8.15225 22.4699 7.96586 22.4705C5.96654 22.4744 3.96722 22.4751 1.96791 22.4718C0.975771 22.4705 0.269438 21.9459 0.0516517 21.0569C0.0287612 20.9627 0.0130649 20.8639 0.0130649 20.7671C0.0104489 18.5967 -0.00590141 16.4262 0.0189511 14.2558C0.0287612 13.4244 0.614102 12.7787 1.42246 12.5903C1.59512 12.5498 1.77824 12.5413 1.95614 12.5413C3.9633 12.538 5.97112 12.5367 7.97828 12.54C8.96584 12.5419 9.67741 13.0738 9.88342 13.9667C9.92658 14.1551 9.93051 14.3552 9.93182 14.5495C9.93639 15.5366 9.93443 16.5237 9.93443 17.5115Z" fill="#858EA9"/>
<path d="M12.0186 17.536C12.0264 17.0231 12.1827 16.592 12.5248 16.2473C13.7602 15.0025 14.995 13.757 16.2467 12.5278C16.9505 11.8371 18.0603 11.8377 18.7653 12.5298C20.0165 13.7583 21.2571 14.9992 22.4847 16.2512C23.1695 16.9498 23.174 18.0514 22.4899 18.7507C21.2578 20.0099 20.0112 21.2561 18.7523 22.4885C18.0538 23.1721 16.9505 23.1694 16.2526 22.4859C14.9943 21.2521 13.755 20.0001 12.5143 18.7487C12.1788 18.4105 12.0297 17.984 12.0186 17.536Z" fill="#858EA9"/>
</svg>
