<svg width="26" height="23" viewBox="0 0 26 23" fill="none" xmlns="http://www.w3.org/2000/svg">
<path d="M12.8725 22.9984C9.05998 22.9984 5.24689 22.999 1.43437 22.9979C0.730142 22.9979 0.193476 22.6126 0.0380043 21.9927C0.00575822 21.865 0.00172747 21.7282 0.00172747 21.5953C0 16.1721 0 10.7483 0 5.32509C0 4.5321 0.49751 3.99214 1.29042 3.92313C1.38543 3.91508 1.48159 3.91623 1.57775 3.91623C9.1072 3.91623 16.6372 3.91393 24.1667 3.92428C24.4713 3.92486 24.8018 3.99099 25.0747 4.12152C25.5204 4.33429 25.745 4.73452 25.745 5.23883C25.7456 10.7196 25.7467 16.2009 25.7439 21.6816C25.7433 22.4297 25.1513 22.9944 24.3682 22.9973C23.0173 23.0025 21.667 22.999 20.3162 22.999C17.8349 22.9984 15.3537 22.9984 12.8725 22.9984ZM16.6286 15.5154C15.2541 15.5304 14.3224 16.2532 13.6614 17.3935C13.5215 17.6344 13.6038 17.8558 13.8508 17.999C13.9827 18.0755 14.1209 18.1428 14.2574 18.2112C14.7796 18.4723 14.8971 18.7316 15.4032 17.9737C15.9635 17.1353 16.8871 17.0513 17.6622 17.696C17.824 17.8305 17.9731 17.9795 18.1315 18.118C19.7351 19.5235 21.8311 19.3049 23.0899 17.5913C23.5045 17.0272 23.7175 16.7707 22.821 16.3423C22.096 15.9956 22.1064 15.9737 21.6175 16.6057C21.0175 17.3808 20.1353 17.4809 19.3862 16.8547C19.2175 16.7138 19.0603 16.5591 18.8944 16.4148C18.2467 15.8489 17.5142 15.493 16.6286 15.5154ZM11.3805 8.84664C8.34193 8.84664 5.33902 8.84664 2.33093 8.84664C2.33093 9.51944 2.33093 10.1715 2.33093 10.8213C5.3609 10.8213 8.36497 10.8213 11.3805 10.8213C11.3805 10.1572 11.3805 9.51082 11.3805 8.84664Z" fill="#858EA9"/>
<path d="M3.68011 2.54175C3.68011 1.9023 3.67147 1.29103 3.68299 0.679762C3.69163 0.259981 3.99681 0.00581254 4.48223 0.00408741C5.5642 -0.000512923 6.64617 0.00236229 7.72814 0.00236229C7.95789 0.00236229 8.18822 -0.00396318 8.4174 0.00408741C8.90627 0.0213387 9.17691 0.294484 9.18152 0.782119C9.1867 1.36291 9.18267 1.9437 9.18267 2.54175C7.34061 2.54175 5.52677 2.54175 3.68011 2.54175Z" fill="#858EA9"/>
<path d="M22.0236 2.56978C21.9021 2.57783 21.818 2.58819 21.7345 2.58819C20.0975 2.58933 18.461 2.58473 16.8239 2.59394C16.5861 2.59509 16.5084 2.52781 16.517 2.28801C16.5343 1.81073 16.517 1.33229 16.5233 0.854433C16.5308 0.298942 16.7865 0.047074 17.3341 0.0464989C18.636 0.0453489 19.9374 0.0447738 21.2393 0.0464989C21.7564 0.047074 22.0167 0.301243 22.0219 0.817055C22.0282 1.39037 22.0236 1.96311 22.0236 2.56978Z" fill="#858EA9"/>
</svg>
