<svg width="32" height="32" viewBox="0 0 32 32" fill="none" xmlns="http://www.w3.org/2000/svg">
<path d="M6.51825 1.03857H16.0964C15.9102 1.42627 15.8611 1.83541 15.8627 2.26294C15.8711 4.51171 15.8657 6.76124 15.8665 9.01C15.868 10.8236 17.1154 12.0694 18.9305 12.0709C21.013 12.0725 23.0955 12.0725 25.1772 12.0709C25.7457 12.0709 26.3242 12.1399 26.8774 11.8319C26.8774 11.9874 26.8774 12.1016 26.8774 12.2157C26.8774 16.2834 26.8774 20.3511 26.8774 24.4188C26.8774 25.7681 26.8835 27.1181 26.8751 28.4674C26.8697 29.3853 26.2767 30.1445 25.3971 30.3943C25.3351 30.4119 25.2753 30.4388 25.214 30.461H6.51825C5.18355 29.9407 4.85485 29.4565 4.85485 28.0076C4.85485 20.9549 4.85485 13.9021 4.85485 6.84935C4.85485 5.57671 4.84949 4.30407 4.85715 3.03143C4.86251 2.15414 5.40651 1.41554 6.22633 1.14201C6.3244 1.10906 6.42094 1.07305 6.51825 1.03857ZM16.7844 19.0624V18.6701C16.7844 16.9569 16.7821 15.2445 16.7859 13.5313C16.7867 13.106 16.6174 12.785 16.2297 12.6096C15.6121 12.3299 14.9532 12.7865 14.9509 13.4968C14.9456 15.2292 14.9494 16.9607 14.9494 18.6931C14.9494 18.7889 14.9494 18.8846 14.9494 18.9804C14.9241 18.9873 14.8981 18.9942 14.8728 19.0011C14.4927 18.6111 14.1234 18.2096 13.7296 17.8342C13.3634 17.4856 12.8117 17.5109 12.4639 17.8618C12.1237 18.2058 12.0861 18.7567 12.4294 19.1076C13.3657 20.0638 14.3134 21.0093 15.2727 21.9417C15.6298 22.2888 16.1354 22.2804 16.4864 21.9348C17.4272 21.01 18.3566 20.0738 19.2837 19.1352C19.5143 18.9023 19.5879 18.6073 19.5074 18.2862C19.3335 17.5974 18.5083 17.3553 17.9866 17.8495C17.5943 18.2211 17.225 18.6165 16.7852 19.0624H16.7844ZM15.8795 24.0242C14.3602 24.0242 12.8401 24.0219 11.3207 24.0258C10.7629 24.0273 10.3576 24.4257 10.3614 24.9513C10.3653 25.4616 10.7691 25.8615 11.3077 25.8615C14.3472 25.8654 17.3859 25.8661 20.4253 25.8562C20.6054 25.8562 20.8054 25.7895 20.9617 25.6961C21.3072 25.4899 21.4459 25.0701 21.334 24.6954C21.2114 24.2863 20.8782 24.0273 20.4384 24.0258C18.919 24.0212 17.3989 24.0242 15.8795 24.0242Z" fill="#4AB255"/>
<path d="M25.8733 10.2326H25.6097C23.3847 10.2326 21.1597 10.2326 18.9339 10.2326C18.121 10.2326 17.7026 9.81122 17.7026 8.9937C17.7026 6.76409 17.7026 4.53448 17.7026 2.30487V2.0459C20.4249 4.77353 23.1426 7.49656 25.8733 10.2326Z" fill="#4AB255"/>
</svg>
