<svg width="27" height="23" viewBox="0 0 27 23" fill="none" xmlns="http://www.w3.org/2000/svg">
<path d="M20.0152 0C18.5933 0 17.2897 0.447991 16.1407 1.33156C15.0391 2.17864 14.3057 3.25755 13.8739 4.0421C13.4421 3.2575 12.7087 2.17864 11.6071 1.33156C10.458 0.447991 9.15445 0 7.73259 0C3.7647 0 0.772461 3.22697 0.772461 7.50624C0.772461 12.1293 4.50549 15.2924 10.1568 20.0808C11.1165 20.894 12.2043 21.8158 13.3349 22.7988C13.4839 22.9286 13.6753 23 13.8739 23C14.0724 23 14.2638 22.9286 14.4129 22.7989C15.5436 21.8157 16.6313 20.894 17.5916 20.0803C23.2423 15.2924 26.9753 12.1293 26.9753 7.50624C26.9753 3.22697 23.983 0 20.0152 0Z" fill="#858EA9"/>
</svg>
